<?xml version="1.0" encoding="UTF-8"?>
<svg version="1.1" xmlns="http://www.w3.org/2000/svg" width="500" height="500">
<path d="M0 0 C1.1147168 -0.04350586 1.1147168 -0.04350586 2.25195312 -0.08789062 C2.98736328 -0.09626953 3.72277344 -0.10464844 4.48046875 -0.11328125 C5.14328857 -0.12786377 5.8061084 -0.14244629 6.48901367 -0.1574707 C13.60277816 1.28142776 18.47135935 6.55064317 23.35546875 11.52734375 C24.04635086 12.22009903 24.73723297 12.91285431 25.4490509 13.62660217 C26.90047588 15.0847173 28.34831496 16.54640979 29.79272461 18.01147461 C31.99664862 20.24660117 34.21110563 22.47083861 36.42773438 24.69335938 C37.84177143 26.11656621 39.25520374 27.5403742 40.66796875 28.96484375 C41.32532516 29.62645004 41.98268158 30.28805634 42.65995789 30.9697113 C45.92593522 34.2864812 48.91760755 37.66182583 51.8125 41.3125 C52.9024418 42.32497084 54.02441205 43.3040644 55.17578125 44.24609375 C61.12380525 49.3371173 66.58099669 54.93197323 72.10424805 60.47387695 C74.00262055 62.37762797 75.90630374 64.27595124 77.81054688 66.17382812 C79.03417506 67.39811686 80.25749315 68.62271563 81.48046875 69.84765625 C82.04203171 70.40719498 82.60359467 70.9667337 83.18217468 71.54322815 C85.74285166 74.11900981 88.19281534 76.71618691 90.4934082 79.52832031 C92.34342959 81.74935873 94.03030931 83.5130306 96.25 85.32421875 C102.1116683 90.33060134 107.50452847 95.81850234 112.95166016 101.26635742 C114.83087639 103.14335469 116.71799623 105.01216889 118.60546875 106.88085938 C119.79996644 108.0724284 120.99399464 109.26446829 122.1875 110.45703125 C122.75299561 111.01534134 123.31849121 111.57365143 123.90112305 112.14888 C127.8125 116.08363553 127.8125 116.08363553 127.8125 118.3125 C128.4725 118.3125 129.1325 118.3125 129.8125 118.3125 C130.98547973 119.72697556 132.15423223 121.14512161 133.30419922 122.57836914 C134.79442048 124.29171353 136.32582945 125.67061099 138.0703125 127.12109375 C144.18607378 132.40517295 149.86565678 138.14254619 155.58642578 143.84619141 C157.5648889 145.8148771 159.55377986 147.77262881 161.54296875 149.73046875 C162.81576123 150.99673573 164.08791891 152.26364116 165.359375 153.53125 C165.94797302 154.10750122 166.53657104 154.68375244 167.14300537 155.27746582 C172.31814461 160.48061537 176.25453684 165.54197257 176.47021484 173.21166992 C176.45941895 173.88431885 176.44862305 174.55696777 176.4375 175.25 C176.43057129 175.95294189 176.42364258 176.65588379 176.41650391 177.38012695 C176.19456719 182.66430522 175.12587997 185.94359221 171.51953125 189.76953125 C170.95621094 190.27871094 170.39289063 190.78789062 169.8125 191.3125 C169.32136719 191.81136719 168.83023437 192.31023437 168.32421875 192.82421875 C164.92316041 196.02359708 161.42439243 197.83908323 156.8125 198.3125 C153.52857876 197.96621712 150.31419676 197.39638033 147.06184387 196.82568359 C121.98743835 192.77783418 95.03742316 193.31298495 73.75504422 208.66828245 C58.63502827 219.92128153 45.14818984 233.16854632 31.92476654 246.5474968 C29.18703664 249.31634502 26.42121962 252.05502094 23.64616728 254.78639638 C-5.26077356 281.1983976 -5.26077356 281.1983976 -18.09016418 316.08628845 C-17.91578099 321.79764345 -17.00820991 327.27106116 -15.79362488 332.84492493 C-14.90671719 337.91882818 -15.47644236 342.48214703 -16.4375 347.5 C-16.58541992 348.3131517 -16.73333984 349.12630341 -16.88574219 349.96409607 C-17.28635593 352.08839268 -17.73399488 354.19893915 -18.1875 356.3125 C-18.45754891 357.7121398 -18.72708196 359.11187924 -18.99609375 360.51171875 C-22.87734162 379.57078226 -30.68868628 411.48427203 -47.0390625 423.6953125 C-52.79098914 427.19542105 -58.57240791 428.14985343 -65.1875 427.3125 C-76.46271712 424.22339942 -85.98423051 413.27969339 -93.3671875 404.6484375 C-97.96427031 399.31298652 -102.9709642 394.37957976 -107.95727539 389.41235352 C-109.62176277 387.7532268 -111.28083447 386.08881949 -112.93945312 384.42382812 C-117.99860889 379.36235672 -123.10114685 374.424131 -128.54907227 369.77709961 C-131.74937691 366.91632959 -134.37744216 363.55089714 -137.109375 360.25390625 C-139.20067672 357.85739283 -139.20067672 357.85739283 -143.1875 358.3125 C-145.06085528 359.51643889 -145.06085528 359.51643889 -146.8125 361.25 C-147.50859375 361.889375 -148.2046875 362.52875 -148.921875 363.1875 C-149.66953125 363.88875 -150.4171875 364.59 -151.1875 365.3125 C-156.05968029 369.77070419 -160.93110268 374.16731685 -166.125 378.25 C-170.762015 381.90164932 -175.08371601 385.82926336 -179.421875 389.828125 C-182.00814759 392.15138682 -184.65616789 394.33470257 -187.375 396.5 C-192.24698498 400.42135377 -196.77926203 404.63097641 -201.3125 408.9375 C-206.06037917 413.44704733 -210.79352939 417.74600568 -216.05859375 421.65234375 C-219.67842765 424.47515001 -222.98031141 427.65015787 -226.3515625 430.76171875 C-229.1443497 433.27368851 -232.0105962 435.64644859 -234.9375 438 C-238.69814337 441.03518593 -242.16155159 444.17126763 -245.5234375 447.63671875 C-250.02514648 452.1701299 -254.98776494 456.17548566 -260 460.125 C-264.7215836 463.86745336 -269.16510446 467.85930369 -273.59765625 471.9375 C-275.79044425 473.94838251 -278.00468683 475.92333946 -280.25 477.875 C-285.89747617 482.78634893 -291.44225555 487.81332788 -296.9765625 492.8515625 C-297.87117188 493.66367187 -298.76578125 494.47578125 -299.6875 495.3125 C-300.90953125 496.42625 -300.90953125 496.42625 -302.15625 497.5625 C-306.0359833 500.90503946 -309.43682573 500.69800223 -314.4140625 500.671875 C-318.70865537 500.11539254 -320.32095993 498.48078113 -323.1875 495.3125 C-325.22802735 491.2314453 -324.98549203 486.71905891 -324.1875 482.3125 C-322.55552285 479.71262151 -320.71948949 477.78241997 -318.53515625 475.62890625 C-316.02034383 473.14756887 -313.87829943 470.5199325 -311.6875 467.75 C-308.99208602 464.42227143 -306.26054735 461.29408761 -303.1875 458.3125 C-299.28705989 454.52768559 -295.94152681 450.40691121 -292.54296875 446.171875 C-290.15621784 443.27452564 -287.66976545 440.50910251 -285.125 437.75 C-279.85341925 432.01930802 -275.03248598 425.99356349 -270.2734375 419.8359375 C-268.05364739 417.15057344 -265.66916327 414.75701262 -263.1875 412.3125 C-256.68557281 405.53850635 -250.47813852 398.56902109 -244.58984375 391.25390625 C-237.81366255 382.9572161 -230.72154799 374.91559407 -223.4375 367.0625 C-219.24035019 362.52520491 -215.30790361 357.84088025 -211.43359375 353.02734375 C-209.0991941 350.20576505 -206.66759402 347.50659288 -204.1875 344.8125 C-200.08629023 340.3563169 -196.2396255 335.75098231 -192.4375 331.0390625 C-188.83061347 326.66821736 -185.01810956 322.48723051 -181.1875 318.3125 C-182.74685633 314.57188188 -185.05804678 312.19784364 -187.9140625 309.35546875 C-188.3805722 308.88941727 -188.84708191 308.42336578 -189.32772827 307.94319153 C-190.3155674 306.95836655 -191.30582895 305.97596619 -192.29833984 304.99584961 C-193.79183047 303.52041957 -195.2773575 302.0373426 -196.76171875 300.55273438 C-200.80402329 296.52661532 -204.84245044 292.54007263 -209.2109375 288.86328125 C-213.06903433 285.56337297 -216.41706723 281.85491263 -219.80587769 278.08926392 C-223.223161 274.31192075 -226.76114506 270.6941031 -230.40625 267.13671875 C-230.92300293 266.63028839 -231.43975586 266.12385803 -231.97216797 265.6020813 C-234.07897529 263.53987703 -236.18847454 261.48079588 -238.31152344 259.43530273 C-239.89403452 257.90746803 -241.46336359 256.36703922 -243.03125 254.82421875 C-243.95099609 253.93178467 -244.87074219 253.03935059 -245.81835938 252.11987305 C-250.44672954 246.63536887 -251.76522812 241.19692919 -251.53125 234.08984375 C-250.80701422 228.23834785 -248.65817352 223.35654781 -244.375 219.25 C-225.43705605 204.90902584 -199.29496096 197.41390614 -176.1875 193.3125 C-174.55748047 193.01581421 -174.55748047 193.01581421 -172.89453125 192.71313477 C-165.82314457 191.58561422 -159.34669467 191.23968631 -152.2265625 191.71484375 C-134.38198518 193.59073949 -134.38198518 193.59073949 -118.1796875 187.74609375 C-113.84312546 183.73594435 -110.45923951 179.2038896 -107.1875 174.3125 C-104.51667108 170.85256254 -101.78784253 167.90060627 -98.47558594 165.07421875 C-94.48498162 161.611766 -90.71284496 157.98318668 -86.984375 154.2421875 C-86.33929993 153.59806915 -85.69422485 152.95395081 -85.02960205 152.29031372 C-83.68061645 150.94200267 -82.33286885 149.59245193 -80.98632812 148.24169922 C-78.93211745 146.18210334 -76.87258383 144.12793826 -74.8125 142.07421875 C-73.4944707 140.75552906 -72.17675142 139.43652942 -70.859375 138.1171875 C-69.9436673 137.20451614 -69.9436673 137.20451614 -69.00946045 136.27340698 C-65.84398442 133.09056262 -62.98327574 129.83063473 -60.1875 126.3125 C-59.06140613 125.26210314 -57.90325896 124.24495653 -56.71484375 123.265625 C-51.34836305 118.67182794 -46.37633245 113.68738882 -41.38500977 108.6953125 C-39.73405751 107.04657893 -38.07521692 105.40605209 -36.41601562 103.765625 C-35.3614918 102.71403016 -34.30743764 101.6619641 -33.25390625 100.609375 C-32.75919327 100.12184753 -32.26448029 99.63432007 -31.754776 99.13201904 C-27.32800463 94.67528835 -27.03120006 91.37501662 -26.6784668 85.22998047 C-26.63597809 84.51248123 -26.59348938 83.79498199 -26.54971313 83.05574036 C-26.45757666 81.49748733 -26.36708916 79.93913613 -26.27805138 78.38070297 C-26.1354484 75.90765686 -25.98564997 73.43515006 -25.83345032 70.962677 C-25.40075718 63.93248946 -24.97117962 56.90221545 -24.57055664 49.87011719 C-24.32486488 45.5668292 -24.06231401 41.2648471 -23.78898048 36.96323013 C-23.68833625 35.32988356 -23.59384456 33.69614499 -23.50583458 32.06206894 C-22.48661242 13.24431199 -22.48661242 13.24431199 -16.1171875 5.9375 C-15.10011719 5.133125 -15.10011719 5.133125 -14.0625 4.3125 C-13.37929688 3.755625 -12.69609375 3.19875 -11.9921875 2.625 C-8.16428516 -0.15892897 -4.57968059 0.05806865 0 0 Z M20.8125 74.3125 C19.68360739 77.69917783 19.55497919 80.5377924 19.3828125 84.10546875 C19.30910083 85.47203265 19.23486498 86.83856837 19.16015625 88.20507812 C19.04724531 90.34623124 18.93808939 92.48733977 18.83837891 94.62915039 C17.93542579 113.63741462 17.93542579 113.63741462 11.25 120.6875 C10.08017578 121.925 10.08017578 121.925 8.88671875 123.1875 C7.86399158 124.23114256 6.83894486 125.27251365 5.8125 126.3125 C5.11979004 127.01890625 4.42708008 127.7253125 3.71337891 128.453125 C-11.67165648 144.10705024 -11.67165648 144.10705024 -17.1875 148.3125 C-20.20218708 151.11686007 -22.62206822 153.47007655 -24.1875 157.3125 C-24.8475 157.3125 -25.5075 157.3125 -26.1875 157.3125 C-27.65162122 158.79927661 -27.65162122 158.79927661 -29.1875 160.75 C-31.81225097 163.85491376 -34.53209521 166.5925629 -37.59887695 169.25854492 C-43.56251787 174.57011154 -49.16285055 180.20382877 -54.77220726 185.88317299 C-56.64937193 187.78270762 -58.53077051 189.67795577 -60.41340637 191.57206726 C-65.75810737 196.95005364 -71.09834837 202.33241143 -76.4284668 207.72485352 C-79.70788625 211.04201487 -82.99465876 214.35173796 -86.28618813 217.65688133 C-87.53084447 218.90955368 -88.77272626 220.16498955 -90.0116787 221.4233036 C-91.74330711 223.18155348 -93.48416011 224.93016916 -95.22729492 226.67700195 C-95.72876038 227.19082428 -96.23022583 227.70464661 -96.74688721 228.23403931 C-103.06271794 234.51485486 -109.01739659 237.40870576 -117.89453125 237.4453125 C-120.1875 237.3125 -120.1875 237.3125 -123.40380859 236.81689453 C-129.58483051 235.99291781 -135.77311832 236.06876234 -142 236.0625 C-142.69213593 236.06149292 -143.38427185 236.06048584 -144.09738159 236.05944824 C-160.21035735 236.0752999 -174.8265666 238.44738122 -190.1875 243.3125 C-186.53069169 247.79209018 -182.78808778 251.62048346 -178.39453125 255.3671875 C-172.86640052 260.23976999 -167.7169353 265.51571612 -162.90625 271.09375 C-159.03907956 275.54509779 -154.92941489 279.71815621 -150.75 283.875 C-150.03779297 284.59107422 -149.32558594 285.30714844 -148.59179688 286.04492188 C-144.51892381 290.11039644 -140.34204815 293.98443731 -135.98461914 297.74243164 C-133.60441123 299.82192045 -131.35580777 302.01174379 -129.125 304.25 C-128.35027344 305.02214844 -127.57554687 305.79429687 -126.77734375 306.58984375 C-124.74299707 308.72851591 -122.80238301 310.89261851 -120.875 313.125 C-117.1716562 317.38777338 -113.2532108 321.39495146 -109.25 325.375 C-108.58548828 326.04337891 -107.92097656 326.71175781 -107.23632812 327.40039062 C-103.2882092 331.34085074 -99.22386089 335.07997346 -95.00219727 338.72485352 C-88.83335113 344.1218677 -83.24650634 350.12923483 -77.92578125 356.3515625 C-74.84210207 359.8302298 -71.51198972 363.06572563 -68.1875 366.3125 C-66.6332769 363.4391429 -65.68481662 360.74971416 -64.93359375 357.57421875 C-64.71896484 356.67123047 -64.50433594 355.76824219 -64.28320312 354.83789062 C-64.06599609 353.90138672 -63.84878906 352.96488281 -63.625 352 C-63.40392578 351.07509766 -63.18285156 350.15019531 -62.95507812 349.19726562 C-61.21457411 341.798809 -60.06175519 334.72281232 -60.0546875 327.09375 C-60.05373077 326.43217896 -60.05277405 325.77060791 -60.05178833 325.08898926 C-60.05111276 323.700764 -60.05292316 322.31253546 -60.05712891 320.92431641 C-60.06248611 318.81796062 -60.05716264 316.71181802 -60.05078125 314.60546875 C-60.05144214 313.24739537 -60.05272353 311.88932212 -60.0546875 310.53125 C-60.05637939 308.7049707 -60.05637939 308.7049707 -60.05810547 306.84179688 C-60.18920649 303.26595465 -60.64335957 299.84653236 -61.1875 296.3125 C-61.62531816 289.41686396 -60.93691835 283.73698459 -56.49414062 278.20336914 C-50.31642223 271.41813658 -43.91180408 264.88321748 -37.41235352 258.40698242 C-35.6207405 256.6207533 -33.83456945 254.82920653 -32.04882812 253.03710938 C-30.88573728 251.87467911 -29.7223364 250.71255897 -28.55859375 249.55078125 C-28.03752548 249.02768875 -27.51645721 248.50459625 -26.979599 247.96565247 C-24.22119414 245.22426624 -21.39903478 242.60865439 -18.44667053 240.07662964 C-14.38760436 236.53686933 -10.57417005 232.80827298 -6.796875 228.97192383 C-6.10630005 228.27506973 -5.4157251 227.57821564 -4.70422363 226.86024475 C-3.21911793 225.36139037 -1.73509787 223.86145965 -0.2520752 222.3605442 C2.09958955 219.98201805 4.45579656 217.6080824 6.81347656 215.23551941 C13.51180156 208.49465485 20.20735202 201.75111195 26.88671875 194.99145508 C30.98509898 190.84447433 35.0932469 186.70739055 39.20788574 182.57654381 C40.76799338 181.00656494 42.3244448 179.43294372 43.8770752 177.85556984 C46.04946805 175.64931046 48.2341105 173.4558954 50.421875 171.26489258 C51.05379761 170.61701782 51.68572021 169.96914307 52.33679199 169.30163574 C59.45833209 162.22778982 66.45713312 159.40808292 76.40625 158.84765625 C77.68371094 158.76966797 78.96117187 158.69167969 80.27734375 158.61132812 C82.29816551 158.49163216 84.31905169 158.37463795 86.34033203 158.26293945 C88.30025181 158.15304855 90.25952103 158.03174311 92.21875 157.91015625 C93.38728516 157.84320557 94.55582031 157.77625488 95.75976562 157.70727539 C98.65665332 157.33265388 100.28980993 156.67246075 102.8125 155.3125 C93.38378907 145.86061392 83.95237544 136.41143393 74.5175066 126.96569443 C70.13656007 122.57953042 65.75654823 118.19244146 61.37866211 113.80322266 C57.15336008 109.56705152 52.92561659 105.3333312 48.69617271 101.10129547 C47.08337997 99.48665574 45.47146731 97.87113642 43.86045265 96.2547226 C41.60306174 93.99006794 39.34255571 91.72856703 37.08129883 89.46777344 C36.4166713 88.79955063 35.75204376 88.13132782 35.067276 87.44285583 C31.7895462 84.17238047 28.48210868 81.1497301 24.8125 78.3125 C23.46102862 76.99755488 22.12137458 75.66985142 20.8125 74.3125 Z " fill="#3C3C3C" transform="translate(324.1875,-0.3125)"/>
<path d="M0 0 C0.66 0 1.32 0 2 0 C2.42655274 15.04783262 1.14293967 30.00803601 0 45 C-0.66 45 -1.32 45 -2 45 C-2.14394525 34.81787283 -1.71205286 24.77533741 -1 14.625 C-0.90321712 13.19534146 -0.80686097 11.76565396 -0.7109375 10.3359375 C-0.478851 6.89027894 -0.24108243 3.44504227 0 0 Z " fill="#777777" transform="translate(301,30)"/>
<path d="M0 0 C1 2 1 2 0 5.1875 C-1.02567168 9.04565572 -0.93776926 12.22169152 -0.5625 16.1875 C0.14901461 24.29545719 -0.12044555 32.3120723 -0.4375 40.4375 C-0.47630783 41.43914688 -0.47630783 41.43914688 -0.51589966 42.46102905 C-0.66709107 46.30781366 -0.82918036 50.15404027 -1 54 C-1.33 54 -1.66 54 -2 54 C-2.02505615 53.12786865 -2.0501123 52.2557373 -2.07592773 51.35717773 C-2.17157363 48.09372237 -2.27077356 44.83041392 -2.37231445 41.56713867 C-2.41538658 40.15995443 -2.45707864 38.75272718 -2.49731445 37.34545898 C-2.5556957 35.31220592 -2.61918685 33.27916383 -2.68359375 31.24609375 C-2.72025146 30.02591553 -2.75690918 28.8057373 -2.79467773 27.54858398 C-3.0009042 23.98437272 -3.46870135 20.52864966 -4 17 C-4.39661334 10.75333987 -3.51684332 6.73840278 -1 1 C-0.67 0.67 -0.34 0.34 0 0 Z " fill="#828282" transform="translate(266,279)"/>
<path d="M0 0 C-1 3 -1 3 -3.8125 4.625 C-13.57235024 8.83513148 -26.51814662 8.99586047 -37 8 C-37.99 7.34 -38.98 6.68 -40 6 C-36.90612819 4.9687094 -34.92066145 4.92999921 -31.6875 5 C-20.82737253 5.07917468 -9.52459261 0 0 0 Z " fill="#555555" transform="translate(492,191)"/>
<path d="M0 0 C0 3.71928506 -1.34770822 5.69541645 -3 9 C-3.185625 9.928125 -3.37125 10.85625 -3.5625 11.8125 C-3.706875 12.534375 -3.85125 13.25625 -4 14 C-4.99 14.495 -4.99 14.495 -6 15 C-6.66 14.67 -7.32 14.34 -8 14 C-8 13.34 -8 12.68 -8 12 C-8.66 11.67 -9.32 11.34 -10 11 C-6.7 7.37 -3.4 3.74 0 0 Z " fill="#404040" transform="translate(20,459)"/>
<path d="M0 0 C0.99 0.33 1.98 0.66 3 1 C0.80510265 3.27931648 -1.40538207 5.32606818 -3.875 7.3125 C-6.90499233 9.77340747 -9.28278186 12.59307713 -11.703125 15.64453125 C-12.13109375 16.09183594 -12.5590625 16.53914063 -13 17 C-13.66 17 -14.32 17 -15 17 C-13.67879172 14.06769807 -12.25361803 12.01335101 -9.9609375 9.765625 C-9.38085938 9.19199219 -8.80078125 8.61835938 -8.203125 8.02734375 C-7.59984375 7.44082031 -6.9965625 6.85429687 -6.375 6.25 C-5.76398438 5.64800781 -5.15296875 5.04601562 -4.5234375 4.42578125 C-3.02011376 2.94594695 -1.51065144 1.47235324 0 0 Z " fill="#323232" transform="translate(342,203)"/>
<path d="M0 0 C0.99 0 1.98 0 3 0 C2.67 5.61 2.34 11.22 2 17 C1.34 17.33 0.68 17.66 0 18 C0 12.06 0 6.12 0 0 Z " fill="#6B6B6B" transform="translate(298,76)"/>
<path d="M0 0 C0.33 0.99 0.66 1.98 1 3 C0.175 3.763125 -0.65 4.52625 -1.5 5.3125 C-4.34055197 7.75434142 -4.34055197 7.75434142 -4 11 C-4.99 11 -5.98 11 -7 11 C-6.67 11.99 -6.34 12.98 -6 14 C-7.98 14.33 -9.96 14.66 -12 15 C-8.19695186 9.80789528 -4.23841458 4.84390238 0 0 Z " fill="#676767" transform="translate(92,376)"/>
<path d="M0 0 C0.66 0 1.32 0 2 0 C1 3 1 3 -1.8125 4.625 C-6.16942105 6.50445614 -9.50556376 7.12492679 -14.25 7.0625 C-15.14203125 7.05347656 -16.0340625 7.04445312 -16.953125 7.03515625 C-17.62859375 7.02355469 -18.3040625 7.01195312 -19 7 C-19 6.67 -19 6.34 -19 6 C-17.700625 5.9175 -16.40125 5.835 -15.0625 5.75 C-10.02668627 5.20731326 -3.71209357 3.71209357 0 0 Z " fill="#6E6E6E" transform="translate(490,191)"/>
<path d="M0 0 C-1.50572674 3.83275898 -3.44747239 5.91482075 -7 8 C-9.83141109 8.03677157 -12.19694407 7.57011307 -15 7 C-15 6.67 -15 6.34 -15 6 C-13.906875 5.855625 -12.81375 5.71125 -11.6875 5.5625 C-8.06877013 5.11711896 -8.06877013 5.11711896 -5 4 C-4.67 3.01 -4.34 2.02 -4 1 C-2 0 -2 0 0 0 Z " fill="#505050" transform="translate(25,492)"/>
<path d="M0 0 C0 0.33 0 0.66 0 1 C-5.61 2.32 -11.22 3.64 -17 5 C-17.33 4.34 -17.66 3.68 -18 3 C-16.13133238 2.29546997 -14.25468584 1.61208312 -12.375 0.9375 C-11.33085937 0.55464844 -10.28671875 0.17179688 -9.2109375 -0.22265625 C-5.72829236 -1.06577837 -3.45547652 -0.82495611 0 0 Z " fill="#686868" transform="translate(153,238)"/>
<path d="M0 0 C0.99 0.33 1.98 0.66 3 1 C3 2.65 3 4.3 3 6 C2.34 6 1.68 6 1 6 C1.33 8.64 1.66 11.28 2 14 C1.34 14 0.68 14 0 14 C-1.31164842 11.37670316 -1.13262846 9.36301375 -1.125 6.4375 C-1.12757812 5.44621094 -1.13015625 4.45492188 -1.1328125 3.43359375 C-1 1 -1 1 0 0 Z " fill="#4A4A4A" transform="translate(1,481)"/>
<path d="M0 0 C0.33 0.66 0.66 1.32 1 2 C0.34 1.67 -0.32 1.34 -1 1 C-0.67 0.67 -0.34 0.34 0 0 Z M-5 1 C-3.125 1.25 -3.125 1.25 -1 2 C0.25 4.0625 0.25 4.0625 1 6 C1.66 6 2.32 6 3 6 C3 6.99 3 7.98 3 9 C4.32 9.66 5.64 10.32 7 11 C6.01 11.33 5.02 11.66 4 12 C2.68141572 10.73548068 1.37032369 9.46314525 0.0625 8.1875 C-0.66839844 7.47980469 -1.39929688 6.77210938 -2.15234375 6.04296875 C-4 4 -4 4 -5 1 Z " fill="#363636" transform="translate(205,370)"/>
<path d="M0 0 C0.33 0 0.66 0 1 0 C2.59843905 6.39375619 2.28130809 12.59345955 1 19 C-1.55698285 15.21332311 -1.03499684 11.5877666 -0.625 7.25 C-0.56828125 6.55261719 -0.5115625 5.85523438 -0.453125 5.13671875 C-0.31232128 3.42360688 -0.15754028 1.71165389 0 0 Z " fill="#4E4E4E" transform="translate(306,332)"/>
<path d="M0 0 C0.66 0.33 1.32 0.66 2 1 C3.29411765 8.41176471 3.29411765 8.41176471 2 11 C-3 5.25 -3 5.25 -3 3 C-2.01 3 -1.02 3 0 3 C0 2.01 0 1.02 0 0 Z " fill="#4B4B4B" transform="translate(108,273)"/>
<path d="M0 0 C0.66 0 1.32 0 2 0 C0.52278578 3.45201639 -1.43794001 5.64961936 -4.125 8.25 C-4.84945313 8.95640625 -5.57390625 9.6628125 -6.3203125 10.390625 C-6.87460937 10.92171875 -7.42890625 11.4528125 -8 12 C-8.33 11.01 -8.66 10.02 -9 9 C-7.37660195 7.29115995 -5.70680947 5.62553283 -4 4 C-3.34 4 -2.68 4 -2 4 C-1.34 2.68 -0.68 1.36 0 0 Z " fill="#545454" transform="translate(317,288)"/>
<path d="M0 0 C0.99 0.33 1.98 0.66 3 1 C2.01 4.96 1.02 8.92 0 13 C-0.66 13 -1.32 13 -2 13 C-1.48041715 8.62065881 -0.94324258 4.31196609 0 0 Z " fill="#6E6E6E" transform="translate(261,346)"/>
<path d="M0 0 C0.99 0 1.98 0 3 0 C2.48964169 4.3890815 1.47785723 7.33708062 -1 11 C-1.99 10.67 -2.98 10.34 -4 10 C-2.95833333 8.27473958 -1.91666667 6.54947917 -0.875 4.82421875 C0.21623999 2.88638074 0.21623999 2.88638074 0 0 Z " fill="#646464" transform="translate(286,403)"/>
<path d="M0 0 C0 0.66 0 1.32 0 2 C1.65 2 3.3 2 5 2 C5 2.33 5 2.66 5 3 C-0.15171623 3.09038099 -4.91913204 2.84681133 -10 2 C-10 1.34 -10 0.68 -10 0 C-6.7169902 -1.6415049 -3.57454967 -0.51888624 0 0 Z " fill="#747474" transform="translate(207,235)"/>
<path d="M0 0 C1.14926266 0.95421808 2.29430541 1.91352045 3.4375 2.875 C4.07558594 3.40867188 4.71367187 3.94234375 5.37109375 4.4921875 C7 6 7 6 8 8 C5.69 7.67 3.38 7.34 1 7 C0.67 4.69 0.34 2.38 0 0 Z " fill="#696969" transform="translate(460,125)"/>
<path d="M0 0 C0.99 0.66 1.98 1.32 3 2 C2.25 3.9375 2.25 3.9375 1 6 C-1.125 6.75 -1.125 6.75 -3 7 C-3.1875 4.625 -3.1875 4.625 -3 2 C-2.01 1.34 -1.02 0.68 0 0 Z " fill="#525252" transform="translate(246,203)"/>
<path d="M0 0 C-1.44390925 3.80666984 -3.34952803 5.26602582 -7 7 C-7.66 6.67 -8.32 6.34 -9 6 C-8.07213211 4.99105628 -7.13231567 3.99309093 -6.1875 3 C-5.66542969 2.443125 -5.14335937 1.88625 -4.60546875 1.3125 C-3 0 -3 0 0 0 Z " fill="#646464" transform="translate(286,261)"/>
<path d="M0 0 C0 3.3645241 -0.38101977 5.05639958 -2 8 C-5.125 9.8125 -5.125 9.8125 -8 11 C-6.63629701 8.00779732 -5.05091917 5.70973471 -2.875 3.25 C-2.33617187 2.63640625 -1.79734375 2.0228125 -1.2421875 1.390625 C-0.62730469 0.70226562 -0.62730469 0.70226562 0 0 Z " fill="#5E5E5E" transform="translate(48,427)"/>
<path d="M0 0 C2.31 1.98 4.62 3.96 7 6 C6.01 6.99 5.02 7.98 4 9 C2.5 7.625 2.5 7.625 1 6 C1 5.34 1 4.68 1 4 C0.67 2.68 0.34 1.36 0 0 Z " fill="#5D5D5D" transform="translate(225,334)"/>
<path d="M0 0 C0 3.88182751 -0.99521992 5.91792914 -3.625 8.75 C-4.305625 9.36875 -4.305625 9.36875 -5 10 C-5.99 9.67 -6.98 9.34 -8 9 C-5.36 6.03 -2.72 3.06 0 0 Z " fill="#6A6A6A" transform="translate(143,318)"/>
<path d="M0 0 C0.66 0.66 1.32 1.32 2 2 C-0.64 4.31 -3.28 6.62 -6 9 C-6.66 8.34 -7.32 7.68 -8 7 C-7.01 6.67 -6.02 6.34 -5 6 C-5 5.34 -5 4.68 -5 4 C-4.01 4 -3.02 4 -2 4 C-1.34 2.68 -0.68 1.36 0 0 Z " fill="#696969" transform="translate(117,410)"/>
<path d="M0 0 C-1.28965176 1.37562854 -2.62689293 2.70766393 -4 4 C-6.33333333 4 -8.66666667 4 -11 4 C-7.04396675 0.96704118 -5.03239385 -0.13243142 0 0 Z " fill="#686868" transform="translate(104,208)"/>
<path d="M0 0 C0 3.30941204 -0.40339294 5.11090151 -2 8 C-4.625 8.8125 -4.625 8.8125 -7 9 C-2.85714286 2.57142857 -2.85714286 2.57142857 0 0 Z " fill="#6D6D6D" transform="translate(20,459)"/>
<path d="M0 0 C1.98 1.65 3.96 3.3 6 5 C5.01 5.66 4.02 6.32 3 7 C2.01 6.34 1.02 5.68 0 5 C-0.1875 2.375 -0.1875 2.375 0 0 Z " fill="#484848" transform="translate(210,320)"/>
<path d="M0 0 C-1.49097658 3.7952131 -3.75700849 5.61042731 -7 8 C-7 5 -7 5 -4.625 2.3125 C-2 0 -2 0 0 0 Z " fill="#575757" transform="translate(363,244)"/>
<path d="M0 0 C0.99 0.33 1.98 0.66 3 1 C-0.465 3.97 -0.465 3.97 -4 7 C-4.33 6.01 -4.66 5.02 -5 4 C-2.6875 1.9375 -2.6875 1.9375 0 0 Z " fill="#646464" transform="translate(164,369)"/>
<path d="M0 0 C3.36720387 1.39332574 4.9859524 2.9789286 7 6 C4 6 4 6 1.8125 4.125 C0 2 0 2 0 0 Z " fill="#525252" transform="translate(386,113)"/>
<path d="M0 0 C2.64752004 2.57784846 4.94432065 4.91648098 7 8 C4.50638429 6.79618552 2.31856917 5.54571278 0 4 C0 2.68 0 1.36 0 0 Z " fill="#535353" transform="translate(409,74)"/>
<path d="M0 0 C-1.39332574 3.36720387 -2.9789286 4.9859524 -6 7 C-5.37162381 3.35541809 -4.14650034 0 0 0 Z " fill="#585858" transform="translate(401,206)"/>
<path d="M0 0 C1.98 1.65 3.96 3.3 6 5 C5.01 5.33 4.02 5.66 3 6 C2.01 5.34 1.02 4.68 0 4 C0 2.68 0 1.36 0 0 Z " fill="#6F6F6F" transform="translate(389,54)"/>
</svg>
