<?xml version="1.0" encoding="UTF-8"?>
<svg version="1.1" xmlns="http://www.w3.org/2000/svg" width="720" height="858">
<path d="M0 0 C237.6 0 475.2 0 720 0 C720 283.14 720 566.28 720 858 C482.4 858 244.8 858 0 858 C0 574.86 0 291.72 0 0 Z " fill="#FEFEFE" transform="translate(0,0)"/>
<path d="M0 0 C1.11184368 0.9246421 2.2238298 1.84911296 3.3359375 2.7734375 C15.39908554 12.87332456 26.26508813 23.61523761 36 36 C36.60585938 36.71542969 37.21171875 37.43085938 37.8359375 38.16796875 C49.73412667 52.35040942 59.54410453 68.56882834 68 85 C68.35255859 85.68449219 68.70511719 86.36898437 69.06835938 87.07421875 C87.02734387 122.45308127 95.21644556 161.57372248 95.25 201.0625 C95.25133942 201.99153137 95.25267883 202.92056274 95.25405884 203.87774658 C95.24831782 222.27235987 94.3944321 240.26402551 89.73852539 258.14697266 C89.08846723 260.65823865 88.49404673 263.17154739 87.9296875 265.703125 C83.19228325 286.43350044 75.38920269 305.49663052 65 324 C63.59293482 326.53976257 62.19026621 329.08191486 60.78833008 331.62451172 C59.84986848 333.32635485 58.909615 335.02721116 57.9675293 336.72705078 C54.81758659 342.43300761 51.85724457 348.20686119 48.98999023 354.05883789 C46.07574005 359.95932254 42.87512533 365.68375395 39.64697266 371.41699219 C36.45087232 377.11787722 33.52435069 382.9058897 30.64453125 388.7734375 C29.03759424 391.92624028 27.30910326 394.95942291 25.5 398 C23.09008795 402.05375934 20.88929917 406.14094455 18.8125 410.375 C15.38736071 417.33160219 11.69693402 424.12275477 7.96606445 430.91943359 C4.0869295 437.99199482 0.25969054 445.09115357 -3.54144287 452.20587158 C-12.17766109 468.37025454 -20.85749638 484.50652154 -29.91503906 500.43945312 C-32.92048271 505.76715984 -35.62438276 511.2118764 -38.3203125 516.703125 C-39.93895472 519.88018089 -41.6766112 522.93670682 -43.5 526 C-45.89880496 530.03147177 -48.07376493 534.09382689 -50.125 538.3125 C-53.22436231 544.62191613 -56.63327853 550.71252325 -60.125 556.8125 C-64.77742766 564.94854855 -69.21987845 573.16222723 -73.5 581.5 C-78.23262507 590.71443459 -83.19428591 599.76252291 -88.33374023 608.75561523 C-92.11611817 615.38924488 -95.73294872 622.09000845 -99.26025391 628.86206055 C-105.86974912 641.53760359 -112.7487286 654.07228706 -119.8125 666.5 C-122.44037016 671.12482122 -124.91792052 675.77860102 -127.25 680.5625 C-130.50999075 687.17431222 -134.03324046 693.62534012 -137.625 700.0625 C-138.45112793 701.5630896 -138.45112793 701.5630896 -139.29394531 703.09399414 C-144.16669008 711.75200101 -149.80399418 718.44870349 -159.1875 722.3125 C-168.46424365 723.98535541 -176.70556047 723.75660884 -185 719 C-191.59516602 713.69835209 -195.45023017 707.31984165 -199.25 699.875 C-200.3796608 697.72627456 -201.50988117 695.57784321 -202.640625 693.4296875 C-203.20201172 692.35170898 -203.76339844 691.27373047 -204.34179688 690.16308594 C-206.83417155 685.40878583 -209.41624636 680.70506558 -212 676 C-215.14683582 670.24518803 -218.28169457 664.48422017 -221.39453125 658.7109375 C-226.29517482 649.62487942 -231.19139106 640.56851895 -236.46875 631.6953125 C-238.2267777 628.60082498 -239.80343641 625.44313147 -241.375 622.25 C-244.91699424 615.05557072 -248.82090624 608.10320318 -252.78662109 601.13574219 C-258.52643599 591.03274406 -264.10467365 580.90375916 -269.234375 570.4765625 C-272.22341613 564.59106115 -275.51745218 558.88016466 -278.78222656 553.14453125 C-289.02974361 535.09838255 -289.02974361 535.09838255 -292.875 527.25 C-296.06901862 520.737057 -299.56782579 514.39941202 -303.05419922 508.04003906 C-307.07089134 500.71181016 -311.04489331 493.36163522 -315 486 C-319.37480292 477.86345443 -323.76336083 469.73483799 -328.1875 461.625 C-328.91682739 460.28791992 -328.91682739 460.28791992 -329.66088867 458.92382812 C-332.07629828 454.50198857 -334.50278544 450.08660924 -336.9453125 445.6796875 C-341.61388927 437.24963473 -346.14540877 428.80840498 -350.390625 420.15625 C-352.50191514 416.01566156 -354.87210839 412.05396092 -357.25 408.0625 C-359.13429357 404.76498626 -360.82559176 401.40861677 -362.5 398 C-364.66207224 393.59881064 -366.92233982 389.33404357 -369.4375 385.125 C-371.98581352 380.83487218 -374.30639848 376.47923012 -376.5 372 C-379.87914849 365.11356354 -383.46184509 358.34796909 -387.10134888 351.59576416 C-392.49476764 341.58912716 -397.85030133 331.56363302 -403.09689331 321.47909546 C-404.02808486 319.69108172 -404.96426547 317.90566897 -405.90063477 316.12036133 C-411.76657427 304.80602457 -416.87266016 293.31446017 -420.625 281.125 C-420.91858398 280.18156738 -421.21216797 279.23813477 -421.51464844 278.26611328 C-427.92380382 257.41334199 -432.04184049 236.03790481 -432.23828125 214.1640625 C-432.2480751 213.25499649 -432.25786896 212.34593048 -432.26795959 211.40931702 C-432.579984 174.91993683 -428.09339488 141.27003132 -415 107 C-414.72575195 106.27264648 -414.45150391 105.54529297 -414.16894531 104.79589844 C-405.21258529 81.26538984 -392.39788921 58.96327546 -376.31054688 39.58691406 C-375.06755325 38.08179884 -373.85317855 36.55318221 -372.640625 35.0234375 C-359.72820792 19.10908906 -344.66648018 3.94802346 -328 -8 C-326.85444913 -8.85019038 -325.70993929 -9.70178501 -324.56640625 -10.5546875 C-299.65715943 -28.95360258 -271.1169175 -43.44393432 -241.16601562 -51.41894531 C-238.94265407 -52.0153836 -236.72989991 -52.64418741 -234.515625 -53.2734375 C-153.91100503 -75.53062651 -63.45221524 -53.66344374 0 0 Z " fill="#000000" transform="translate(529,100)"/>
<path d="M0 0 C2.65021563 0.01073851 5.29975577 0.00003777 7.94995117 -0.01269531 C20.53703479 -0.02462857 32.12553429 1.20200188 44.21362305 4.88574219 C45.06335693 5.14444092 45.91309082 5.40313965 46.78857422 5.66967773 C85.96200917 18.0128888 118.25989008 45.18442633 137.5925293 81.36621094 C155.93857347 116.74226476 158.92441127 159.70644312 147.27148438 197.72265625 C142.69301177 211.59648346 136.127446 225.38788858 127.58862305 237.26074219 C126.58895508 238.70126953 126.58895508 238.70126953 125.5690918 240.17089844 C114.67597285 255.14661734 101.19589678 268.29509891 85.58862305 278.26074219 C84.53545898 278.96328125 83.48229492 279.66582031 82.3972168 280.38964844 C69.83265218 288.51421967 55.95009526 294.15746441 41.58862305 298.26074219 C40.94231934 298.45829102 40.29601562 298.65583984 39.63012695 298.859375 C27.12846437 302.54858816 14.45437737 302.6835813 1.52612305 302.76074219 C0.684617 302.77118561 -0.15688904 302.78162903 -1.02389526 302.79238892 C-39.7607805 303.16706588 -76.30933089 286.61701429 -104.12768555 260 C-113.12751328 251.17061646 -120.73577898 241.94878718 -127.41137695 231.26074219 C-127.83241699 230.59333008 -128.25345703 229.92591797 -128.68725586 229.23828125 C-134.8130015 219.38225234 -138.93317821 209.30177964 -142.41137695 198.26074219 C-142.80196289 197.06964844 -143.19254883 195.87855469 -143.5949707 194.65136719 C-150.8192025 172.105413 -152.49055485 145.45081728 -147.41137695 122.26074219 C-147.15485352 121.03484375 -146.89833008 119.80894531 -146.6340332 118.54589844 C-138.97397795 84.0970466 -119.73109725 52.5770722 -91.41137695 31.26074219 C-90.89381836 30.86290527 -90.37625977 30.46506836 -89.84301758 30.05517578 C-63.59445424 9.9610695 -32.99369654 -0.15890268 0 0 Z " fill="#FEFEFE" transform="translate(358.411376953125,149.7392578125)"/>
</svg>
