<svg version="1.1" id="Layer_1" xmlns="http://www.w3.org/2000/svg" xmlns:xlink="http://www.w3.org/1999/xlink" x="0px" y="0px"
	 width="100%" viewBox="0 0 1024 560" enable-background="new 0 0 1024 560" xml:space="preserve">
<path fill="#d9d9d9" opacity="1.000000" stroke="none" 
	d="
M562.000000,547.920959 
	C455.519440,547.905396 349.538879,547.912598 243.558319,547.865173 
	C189.839066,547.841125 143.924286,528.820190 108.369133,488.514954 
	C67.970375,442.718903 55.624420,389.314117 73.793152,330.716949 
	C88.816162,282.265228 121.404694,248.304138 167.343430,227.088638 
	C187.203247,217.916916 208.169006,212.958954 229.890671,211.032471 
	C232.806854,210.773819 234.250549,209.784988 234.680542,206.598450 
	C243.519196,141.095993 279.375854,95.408867 338.059570,66.879417 
	C367.808350,52.416874 399.665955,47.157131 432.371490,50.014343 
	C489.235382,54.982063 535.749695,79.614395 569.986145,126.035416 
	C575.160095,133.050720 573.721436,132.386597 581.443115,128.824249 
	C609.935364,115.679504 639.818970,110.741028 670.562012,117.108582 
	C728.498474,129.108505 767.546143,162.501724 783.671448,220.634674 
	C785.374512,226.774460 786.532837,232.977051 787.020569,239.258575 
	C787.312378,243.016312 788.757263,244.054810 792.263306,244.023819 
	C802.078552,243.937103 811.889404,243.438446 821.698242,244.814163 
	C873.507446,252.080566 913.788147,277.299103 939.431030,323.128906 
	C977.387878,390.966553 957.794495,474.328552 894.333130,519.297729 
	C867.595703,538.243958 837.798096,547.913574 804.956177,547.916748 
	C724.137451,547.924561 643.318726,547.920471 562.000000,547.920959 
M176.066208,487.414551 
	C197.457458,499.072937 220.375534,504.113953 244.686096,504.102173 
	C430.827972,504.012146 616.969971,504.042725 803.111877,504.079834 
	C821.613037,504.083527 839.027588,499.990021 855.562561,491.645142 
	C896.250671,471.110626 920.448364,425.217468 913.565552,380.902618 
	C908.333618,347.216461 890.721863,321.565247 861.807678,303.927582 
	C841.513611,291.548218 819.229980,286.296875 795.379883,288.139526 
	C786.029419,288.861969 776.990662,291.073181 767.932129,293.282776 
	C751.787781,297.220795 738.581543,280.995178 741.641968,267.115631 
	C746.761597,243.896790 741.357544,222.324997 728.593628,202.767868 
	C697.453308,155.053848 629.101074,143.942932 582.781860,179.456299 
	C570.891602,188.572693 552.825562,187.562897 545.244202,170.513657 
	C536.707947,151.316956 523.176453,135.637222 506.356079,123.039612 
	C473.229309,98.229324 435.968506,88.859451 395.172607,95.257195 
	C349.583252,102.406670 314.833862,125.932358 292.364136,166.575638 
	C282.433990,184.537323 277.569000,203.947922 278.060822,224.582108 
	C278.116425,226.913986 278.108765,229.248169 278.088776,231.580933 
	C277.965942,245.906677 268.310669,255.913116 254.139481,255.179718 
	C228.338898,253.844498 203.471603,257.322205 180.502594,269.448303 
	C134.348557,293.814514 108.587700,331.693787 110.445648,384.617188 
	C112.060921,430.628082 136.231995,464.021729 176.066208,487.414551 
z"/>
<path fill="#d9d9d9" opacity="1.000000" stroke="none" 
	d="
M297.776428,282.730499 
	C327.573364,261.388458 358.881531,243.514694 392.673462,230.104950 
	C399.021088,227.585999 405.252594,225.738495 411.927032,229.027069 
	C419.249268,232.634796 422.870087,238.682358 423.181915,246.556976 
	C423.494507,254.449142 418.401428,261.643585 410.551605,264.632019 
	C393.700226,271.047424 377.507019,278.839417 361.810303,287.658051 
	C331.479614,304.698181 303.757294,325.390411 277.574860,348.216461 
	C276.450562,349.196594 275.104828,349.922760 273.227539,351.198547 
	C306.968048,381.287231 342.122833,406.707733 381.661774,425.921967 
	C383.565460,422.721558 382.095276,421.045929 381.221985,419.354034 
	C369.041962,395.757080 363.434540,370.748138 364.669708,344.175873 
	C365.135986,334.144684 366.789917,324.338898 369.389282,314.692169 
	C372.383881,303.578705 382.609314,297.368439 393.000366,300.075897 
	C403.612061,302.840790 409.502960,312.947906 406.706909,324.208038 
	C400.992981,347.218628 401.666718,369.956665 411.193298,391.713074 
	C427.661774,429.322998 456.445404,451.271973 497.364258,456.742584 
	C515.217407,459.129456 532.902222,456.760132 550.500305,454.070404 
	C561.889160,452.329681 572.024597,458.710571 574.055420,469.637238 
	C576.064331,480.446198 568.862061,490.456390 557.374695,492.292664 
	C528.439087,496.917908 499.467926,497.465485 470.346405,493.579346 
	C411.607422,485.740906 359.200897,462.321564 310.497040,429.549652 
	C283.057983,411.086456 257.664246,390.084808 233.611435,367.435089 
	C222.998413,357.441162 222.987381,345.813385 233.659866,335.837463 
	C253.879166,316.937805 274.937958,299.036530 297.776428,282.730499 
z"/>
<path fill="#d9d9d9" opacity="1.000000" stroke="none" 
	d="
M635.401978,469.516052 
	C630.571167,471.468750 626.156250,473.459625 621.594055,475.019409 
	C610.921082,478.668457 600.139343,474.014893 596.697083,463.774170 
	C593.130371,453.163391 596.788269,443.142639 607.832031,438.830200 
	C629.153137,430.504547 649.561768,420.383392 669.096497,408.479980 
	C694.637695,392.916473 718.290283,374.810242 740.877014,355.253448 
	C743.658264,352.845276 744.037720,351.102539 741.098267,348.522583 
	C710.541382,321.703033 677.736145,298.158264 641.386475,279.749481 
	C639.800659,278.946381 638.197937,277.817627 636.199219,278.586914 
	C634.618958,280.292236 635.997009,281.707611 636.729248,283.087280 
	C644.762207,298.223267 650.114929,314.264618 652.611206,331.197662 
	C655.512878,350.881134 654.397583,370.412811 648.925903,389.546570 
	C645.730103,400.721802 635.629456,406.143494 624.795593,403.219482 
	C614.903137,400.549561 609.097900,390.645081 611.637085,379.691681 
	C616.762207,357.583313 616.998535,335.662994 608.359863,314.442413 
	C593.023865,276.770233 565.308289,253.913635 524.918457,247.366058 
	C507.009888,244.462906 489.042999,246.214218 471.236816,248.928192 
	C459.166290,250.767944 450.883911,247.928711 446.567688,239.631516 
	C440.251312,227.489349 446.719971,213.906921 460.471344,211.380386 
	C471.261414,209.397919 482.198059,208.241760 493.183167,207.711929 
	C566.956970,204.153625 633.216736,226.800369 694.929138,265.426697 
	C724.977173,284.233978 752.469788,306.325104 778.732117,330.038086 
	C781.802551,332.810486 783.347046,335.730408 783.180908,339.996399 
	C782.869873,347.983154 782.935913,355.993622 783.133423,363.987091 
	C783.223694,367.642090 781.981079,370.255768 779.316223,372.701996 
	C736.330017,412.162445 689.649963,446.115692 635.401978,469.516052 
z"/>
<path fill="#d9d9d9" opacity="1.000000" stroke="none" 
	d="
M521.289062,288.446716 
	C549.553955,293.707977 570.569641,317.132019 573.482910,345.283691 
	C576.821899,377.549988 555.182190,408.459991 522.212585,414.891693 
	C486.230896,421.911011 452.945740,399.563568 445.905609,364.312408 
	C438.677307,328.118835 463.065125,293.354980 499.500732,287.973846 
	C506.579437,286.928375 513.767944,286.923737 521.289062,288.446716 
M502.912994,376.729462 
	C514.043701,379.143372 524.286987,375.263672 530.519287,366.273560 
	C536.481812,357.672577 536.597595,346.570251 530.818359,337.582703 
	C525.199341,328.844330 514.551025,324.476929 503.799652,326.501007 
	C493.196503,328.497192 484.246521,338.615143 483.372437,349.593903 
	C482.416382,361.602692 489.485443,371.765869 502.912994,376.729462 
z"/>
</svg>